<?xml version="1.0" encoding="UTF-8" standalone="no"?><svg xmlns="http://www.w3.org/2000/svg" xmlns:xlink="http://www.w3.org/1999/xlink" contentScriptType="application/ecmascript" contentStyleType="text/css" height="1124px" preserveAspectRatio="none" style="width:795px;height:1124px;" version="1.1" viewBox="0 0 795 1124" width="795px" zoomAndPan="magnify"><defs/><g><rect fill="#FFFFFF" height="210.9297" style="stroke: #FFFFFF; stroke-width: 1.0;" width="10" x="153" y="112.4824"/><line style="stroke: #000000; stroke-width: 1.0;" x1="153" x2="153" y1="112.4824" y2="323.4121"/><line style="stroke: #000000; stroke-width: 1.0;" x1="163" x2="163" y1="112.4824" y2="323.4121"/><line style="stroke: #000000; stroke-width: 1.0;" x1="153" x2="163" y1="112.4824" y2="112.4824"/><rect fill="#FFFFFF" height="221.4121" style="stroke: #FFFFFF; stroke-width: 1.0;" width="10" x="153" y="387.8945"/><line style="stroke: #000000; stroke-width: 1.0;" x1="153" x2="153" y1="387.8945" y2="609.3066"/><line style="stroke: #000000; stroke-width: 1.0;" x1="163" x2="163" y1="387.8945" y2="609.3066"/><rect fill="#FFFFFF" height="161.4473" style="stroke: #FFFFFF; stroke-width: 1.0;" width="10" x="153" y="673.7891"/><line style="stroke: #000000; stroke-width: 1.0;" x1="153" x2="153" y1="673.7891" y2="835.2363"/><line style="stroke: #000000; stroke-width: 1.0;" x1="163" x2="163" y1="673.7891" y2="835.2363"/><rect fill="#FFFFFF" height="87.4824" style="stroke: #FFFFFF; stroke-width: 1.0;" width="10" x="153" y="899.7188"/><line style="stroke: #000000; stroke-width: 1.0;" x1="153" x2="153" y1="899.7188" y2="987.2012"/><line style="stroke: #000000; stroke-width: 1.0;" x1="163" x2="163" y1="899.7188" y2="987.2012"/><rect fill="#FFFFFF" height="42.4824" style="stroke: #FFFFFF; stroke-width: 1.0;" width="10" x="153" y="1051.6836"/><line style="stroke: #000000; stroke-width: 1.0;" x1="153" x2="153" y1="1051.6836" y2="1094.166"/><line style="stroke: #000000; stroke-width: 1.0;" x1="163" x2="163" y1="1051.6836" y2="1094.166"/><line style="stroke: #000000; stroke-width: 1.0;" x1="153" x2="163" y1="1094.166" y2="1094.166"/><rect fill="#FFFFFF" height="30" style="stroke: #000000; stroke-width: 1.0;" width="10" x="730" y="218.4473"/><rect fill="#FFFFFF" height="30" style="stroke: #000000; stroke-width: 1.0;" width="10" x="730" y="430.377"/><rect fill="#FFFFFF" height="30" style="stroke: #000000; stroke-width: 1.0;" width="10" x="730" y="716.2715"/><rect fill="#FFFFFF" height="30" style="stroke: #000000; stroke-width: 1.0;" width="10" x="730" y="942.2012"/><rect fill="#FFFFFF" height="9" style="stroke: #000000; stroke-width: 1.0;" width="10" x="730" y="1094.166"/><rect fill="#FFFFFF" height="204.9297" rx="5" ry="5" style="stroke: #000000; stroke-width: 2.0;" width="688" x="86" y="263.4473"/><rect fill="#FFFFFF" height="278.8945" rx="5" ry="5" style="stroke: #000000; stroke-width: 2.0;" width="708" x="76" y="482.377"/><rect fill="#FFFFFF" height="204.9297" rx="5" ry="5" style="stroke: #000000; stroke-width: 2.0;" width="688" x="86" y="549.3418"/><rect fill="#FFFFFF" height="204.9297" rx="5" ry="5" style="stroke: #000000; stroke-width: 2.0;" width="688" x="86" y="775.2715"/><line style="stroke: #000000; stroke-width: 1.0;" x1="47" x2="47" y1="102.4824" y2="323.4121"/><line style="stroke: #000000; stroke-width: 1.0; stroke-dasharray: 1.0,4.0;" x1="47" x2="47" y1="323.4121" y2="387.8945"/><line style="stroke: #000000; stroke-width: 1.0;" x1="47" x2="47" y1="387.8945" y2="609.3066"/><line style="stroke: #000000; stroke-width: 1.0; stroke-dasharray: 1.0,4.0;" x1="47" x2="47" y1="609.3066" y2="673.7891"/><line style="stroke: #000000; stroke-width: 1.0;" x1="47" x2="47" y1="673.7891" y2="835.2363"/><line style="stroke: #000000; stroke-width: 1.0; stroke-dasharray: 1.0,4.0;" x1="47" x2="47" y1="835.2363" y2="899.7188"/><line style="stroke: #000000; stroke-width: 1.0;" x1="47" x2="47" y1="899.7188" y2="987.2012"/><line style="stroke: #000000; stroke-width: 1.0; stroke-dasharray: 1.0,4.0;" x1="47" x2="47" y1="987.2012" y2="1051.6836"/><line style="stroke: #000000; stroke-width: 1.0;" x1="47" x2="47" y1="1051.6836" y2="1112.166"/><line style="stroke: #000000; stroke-width: 1.0;" x1="158" x2="158" y1="102.4824" y2="323.4121"/><line style="stroke: #000000; stroke-width: 1.0; stroke-dasharray: 1.0,4.0;" x1="158" x2="158" y1="323.4121" y2="387.8945"/><line style="stroke: #000000; stroke-width: 1.0;" x1="158" x2="158" y1="387.8945" y2="609.3066"/><line style="stroke: #000000; stroke-width: 1.0; stroke-dasharray: 1.0,4.0;" x1="158" x2="158" y1="609.3066" y2="673.7891"/><line style="stroke: #000000; stroke-width: 1.0;" x1="158" x2="158" y1="673.7891" y2="835.2363"/><line style="stroke: #000000; stroke-width: 1.0; stroke-dasharray: 1.0,4.0;" x1="158" x2="158" y1="835.2363" y2="899.7188"/><line style="stroke: #000000; stroke-width: 1.0;" x1="158" x2="158" y1="899.7188" y2="987.2012"/><line style="stroke: #000000; stroke-width: 1.0; stroke-dasharray: 1.0,4.0;" x1="158" x2="158" y1="987.2012" y2="1051.6836"/><line style="stroke: #000000; stroke-width: 1.0;" x1="158" x2="158" y1="1051.6836" y2="1112.166"/><line style="stroke: #000000; stroke-width: 1.0;" x1="735" x2="735" y1="102.4824" y2="323.4121"/><line style="stroke: #000000; stroke-width: 1.0; stroke-dasharray: 1.0,4.0;" x1="735" x2="735" y1="323.4121" y2="387.8945"/><line style="stroke: #000000; stroke-width: 1.0;" x1="735" x2="735" y1="387.8945" y2="609.3066"/><line style="stroke: #000000; stroke-width: 1.0; stroke-dasharray: 1.0,4.0;" x1="735" x2="735" y1="609.3066" y2="673.7891"/><line style="stroke: #000000; stroke-width: 1.0;" x1="735" x2="735" y1="673.7891" y2="835.2363"/><line style="stroke: #000000; stroke-width: 1.0; stroke-dasharray: 1.0,4.0;" x1="735" x2="735" y1="835.2363" y2="899.7188"/><line style="stroke: #000000; stroke-width: 1.0;" x1="735" x2="735" y1="899.7188" y2="987.2012"/><line style="stroke: #000000; stroke-width: 1.0; stroke-dasharray: 1.0,4.0;" x1="735" x2="735" y1="987.2012" y2="1051.6836"/><line style="stroke: #000000; stroke-width: 1.0;" x1="735" x2="735" y1="1051.6836" y2="1112.166"/><text fill="#000000" font-family="&quot;Malgun Gothic&quot;, sans-serif" font-size="12" font-weight="bold" lengthAdjust="spacingAndGlyphs" textLength="52" x="18" y="89.8457">ユーザー</text><ellipse cx="47" cy="13" fill="#9EA0CA" rx="8" ry="8" style="stroke: #000000; stroke-width: 2.0;"/><path d="M47,21 L47,48 M34,29 L60,29 M47,48 L34,63 M47,48 L60,63 " fill="none" style="stroke: #000000; stroke-width: 2.0;"/><rect fill="#9EA0CA" height="53.2295" rx="5" ry="5" style="stroke: #FFFFFF; stroke-width: 1.5;" width="124" x="96" y="48.2529"/><text fill="#FFFFFF" font-family="&quot;Malgun Gothic&quot;, sans-serif" font-size="14" font-weight="bold" lengthAdjust="spacingAndGlyphs" textLength="90" x="113" y="81.4063">クライアント</text><rect fill="#05D686" height="53.2295" rx="5" ry="5" style="stroke: #FFFFFF; stroke-width: 1.5;" width="58" x="706" y="48.2529"/><text fill="#FFFFFF" font-family="&quot;Malgun Gothic&quot;, sans-serif" font-size="14" font-weight="bold" lengthAdjust="spacingAndGlyphs" textLength="24" x="723" y="81.4063">CIC</text><rect fill="#FFFFFF" height="210.9297" style="stroke: #FFFFFF; stroke-width: 1.0;" width="10" x="153" y="112.4824"/><line style="stroke: #000000; stroke-width: 1.0;" x1="153" x2="153" y1="112.4824" y2="323.4121"/><line style="stroke: #000000; stroke-width: 1.0;" x1="163" x2="163" y1="112.4824" y2="323.4121"/><line style="stroke: #000000; stroke-width: 1.0;" x1="153" x2="163" y1="112.4824" y2="112.4824"/><rect fill="#FFFFFF" height="221.4121" style="stroke: #FFFFFF; stroke-width: 1.0;" width="10" x="153" y="387.8945"/><line style="stroke: #000000; stroke-width: 1.0;" x1="153" x2="153" y1="387.8945" y2="609.3066"/><line style="stroke: #000000; stroke-width: 1.0;" x1="163" x2="163" y1="387.8945" y2="609.3066"/><rect fill="#FFFFFF" height="161.4473" style="stroke: #FFFFFF; stroke-width: 1.0;" width="10" x="153" y="673.7891"/><line style="stroke: #000000; stroke-width: 1.0;" x1="153" x2="153" y1="673.7891" y2="835.2363"/><line style="stroke: #000000; stroke-width: 1.0;" x1="163" x2="163" y1="673.7891" y2="835.2363"/><rect fill="#FFFFFF" height="87.4824" style="stroke: #FFFFFF; stroke-width: 1.0;" width="10" x="153" y="899.7188"/><line style="stroke: #000000; stroke-width: 1.0;" x1="153" x2="153" y1="899.7188" y2="987.2012"/><line style="stroke: #000000; stroke-width: 1.0;" x1="163" x2="163" y1="899.7188" y2="987.2012"/><rect fill="#FFFFFF" height="42.4824" style="stroke: #FFFFFF; stroke-width: 1.0;" width="10" x="153" y="1051.6836"/><line style="stroke: #000000; stroke-width: 1.0;" x1="153" x2="153" y1="1051.6836" y2="1094.166"/><line style="stroke: #000000; stroke-width: 1.0;" x1="163" x2="163" y1="1051.6836" y2="1094.166"/><line style="stroke: #000000; stroke-width: 1.0;" x1="153" x2="163" y1="1094.166" y2="1094.166"/><rect fill="#FFFFFF" height="30" style="stroke: #000000; stroke-width: 1.0;" width="10" x="730" y="218.4473"/><rect fill="#FFFFFF" height="30" style="stroke: #000000; stroke-width: 1.0;" width="10" x="730" y="430.377"/><rect fill="#FFFFFF" height="30" style="stroke: #000000; stroke-width: 1.0;" width="10" x="730" y="716.2715"/><rect fill="#FFFFFF" height="30" style="stroke: #000000; stroke-width: 1.0;" width="10" x="730" y="942.2012"/><rect fill="#FFFFFF" height="9" style="stroke: #000000; stroke-width: 1.0;" width="10" x="730" y="1094.166"/><line style="stroke: #000000; stroke-width: 1.0;" x1="163" x2="205" y1="154.9648" y2="154.9648"/><line style="stroke: #000000; stroke-width: 1.0;" x1="205" x2="205" y1="154.9648" y2="167.9648"/><line style="stroke: #000000; stroke-width: 1.0;" x1="164" x2="205" y1="167.9648" y2="167.9648"/><polygon fill="#000000" points="174,163.9648,164,167.9648,174,171.9648,170,167.9648" style="stroke: #000000; stroke-width: 1.0;"/><text fill="#000000" font-family="&quot;Malgun Gothic&quot;, sans-serif" font-size="12" lengthAdjust="spacingAndGlyphs" textLength="144" x="180" y="140.3281">オーディオ再生を開始する</text><line style="stroke: #000000; stroke-width: 1.0;" x1="728" x2="718" y1="218.4473" y2="214.4473"/><line style="stroke: #000000; stroke-width: 1.0;" x1="728" x2="718" y1="218.4473" y2="222.4473"/><line style="stroke: #000000; stroke-width: 1.0;" x1="163" x2="729" y1="218.4473" y2="218.4473"/><text fill="#000000" font-family="&quot;Malgun Gothic&quot;, sans-serif" font-size="12" lengthAdjust="spacingAndGlyphs" textLength="438" x="227.5" y="203.8105">オーディオ再生を開始したことをレポートする(AudioPlayer.PlayStartedイベント)</text><path d="M91,263.4473 L169,263.4473 L169,291.4473 L159,301.4473 L86,301.4473 L86,268.4473 " fill="#EEEEEE" style="stroke: #000000; stroke-width: 1.0;"/><rect fill="none" height="204.9297" rx="5" ry="5" style="stroke: #000000; stroke-width: 2.0;" width="688" x="86" y="263.4473"/><text fill="#000000" font-family="&quot;Malgun Gothic&quot;, sans-serif" font-size="12" font-weight="bold" lengthAdjust="spacingAndGlyphs" textLength="18" x="111" y="288.293">opt</text><text fill="#000000" font-family="&quot;Malgun Gothic&quot;, sans-serif" font-size="12" font-weight="bold" lengthAdjust="spacingAndGlyphs" textLength="339" x="194" y="289.293">[progressReport.progressReportDelayInMilliseconds != null]</text><text fill="#000000" font-family="&quot;Malgun Gothic&quot;, sans-serif" font-size="12" lengthAdjust="spacingAndGlyphs" textLength="324" x="229" y="361.2578">オーディオ再生を開始してから指定された時間が経過した後</text><line style="stroke: #000000; stroke-width: 1.0;" x1="728" x2="718" y1="430.377" y2="426.377"/><line style="stroke: #000000; stroke-width: 1.0;" x1="728" x2="718" y1="430.377" y2="434.377"/><line style="stroke: #000000; stroke-width: 1.0;" x1="163" x2="729" y1="430.377" y2="430.377"/><text fill="#000000" font-family="&quot;Malgun Gothic&quot;, sans-serif" font-size="12" lengthAdjust="spacingAndGlyphs" textLength="514" x="189.5" y="415.7402">オーディオ再生の進行状況をレポートする(AudioPlayer.ProgressReportDelayPassedイベント)</text><path d="M81,482.377 L159,482.377 L159,510.377 L149,520.377 L76,520.377 L76,487.377 " fill="#EEEEEE" style="stroke: #000000; stroke-width: 1.0;"/><rect fill="none" height="278.8945" rx="5" ry="5" style="stroke: #000000; stroke-width: 2.0;" width="708" x="76" y="482.377"/><text fill="#000000" font-family="&quot;Malgun Gothic&quot;, sans-serif" font-size="12" font-weight="bold" lengthAdjust="spacingAndGlyphs" textLength="18" x="101" y="507.2227">opt</text><text fill="#000000" font-family="&quot;Malgun Gothic&quot;, sans-serif" font-size="12" font-weight="bold" lengthAdjust="spacingAndGlyphs" textLength="350" x="184" y="508.2227">[progressReport.progressReportIntervalInMilliseconds != null]</text><path d="M91,549.3418 L175,549.3418 L175,577.3418 L165,587.3418 L86,587.3418 L86,554.3418 " fill="#EEEEEE" style="stroke: #000000; stroke-width: 1.0;"/><rect fill="none" height="204.9297" rx="5" ry="5" style="stroke: #000000; stroke-width: 2.0;" width="688" x="86" y="549.3418"/><text fill="#000000" font-family="&quot;Malgun Gothic&quot;, sans-serif" font-size="12" font-weight="bold" lengthAdjust="spacingAndGlyphs" textLength="24" x="111" y="574.1875">loop</text><text fill="#000000" font-family="&quot;Malgun Gothic&quot;, sans-serif" font-size="12" font-weight="bold" lengthAdjust="spacingAndGlyphs" textLength="190" x="200" y="575.1875">[オーディオ再生が停止するまで]</text><text fill="#000000" font-family="&quot;Malgun Gothic&quot;, sans-serif" font-size="12" lengthAdjust="spacingAndGlyphs" textLength="192" x="295" y="647.1523">指定された間隔の時間が経過した後</text><line style="stroke: #000000; stroke-width: 1.0;" x1="728" x2="718" y1="716.2715" y2="712.2715"/><line style="stroke: #000000; stroke-width: 1.0;" x1="728" x2="718" y1="716.2715" y2="720.2715"/><line style="stroke: #000000; stroke-width: 1.0;" x1="163" x2="729" y1="716.2715" y2="716.2715"/><text fill="#000000" font-family="&quot;Malgun Gothic&quot;, sans-serif" font-size="12" lengthAdjust="spacingAndGlyphs" textLength="522" x="185.5" y="701.6348">オーディオ再生の進行状況をレポートする(AudioPlayer.ProgressReportIntervalPassedイベント)</text><path d="M91,775.2715 L169,775.2715 L169,803.2715 L159,813.2715 L86,813.2715 L86,780.2715 " fill="#EEEEEE" style="stroke: #000000; stroke-width: 1.0;"/><rect fill="none" height="204.9297" rx="5" ry="5" style="stroke: #000000; stroke-width: 2.0;" width="688" x="86" y="775.2715"/><text fill="#000000" font-family="&quot;Malgun Gothic&quot;, sans-serif" font-size="12" font-weight="bold" lengthAdjust="spacingAndGlyphs" textLength="18" x="111" y="800.1172">opt</text><text fill="#000000" font-family="&quot;Malgun Gothic&quot;, sans-serif" font-size="12" font-weight="bold" lengthAdjust="spacingAndGlyphs" textLength="354" x="194" y="801.1172">[progressReport.progressReportPositionInMilliseconds != null]</text><text fill="#000000" font-family="&quot;Malgun Gothic&quot;, sans-serif" font-size="12" lengthAdjust="spacingAndGlyphs" textLength="252" x="265" y="873.082">オーディオの特定の再生ポイントが経過した後</text><line style="stroke: #000000; stroke-width: 1.0;" x1="728" x2="718" y1="942.2012" y2="938.2012"/><line style="stroke: #000000; stroke-width: 1.0;" x1="728" x2="718" y1="942.2012" y2="946.2012"/><line style="stroke: #000000; stroke-width: 1.0;" x1="163" x2="729" y1="942.2012" y2="942.2012"/><text fill="#000000" font-family="&quot;Malgun Gothic&quot;, sans-serif" font-size="12" lengthAdjust="spacingAndGlyphs" textLength="528" x="182.5" y="927.5645">オーディオ再生の進行状況をレポートする(AudioPlayer.ProgressReportPositionPassedイベント)</text><text fill="#000000" font-family="&quot;Malgun Gothic&quot;, sans-serif" font-size="12" lengthAdjust="spacingAndGlyphs" textLength="156" x="313" y="1025.0469">オーディオ再生が完了した後</text><line style="stroke: #000000; stroke-width: 1.0;" x1="728" x2="718" y1="1094.166" y2="1090.166"/><line style="stroke: #000000; stroke-width: 1.0;" x1="728" x2="718" y1="1094.166" y2="1098.166"/><line style="stroke: #000000; stroke-width: 1.0;" x1="158" x2="729" y1="1094.166" y2="1094.166"/><text fill="#000000" font-family="&quot;Malgun Gothic&quot;, sans-serif" font-size="12" lengthAdjust="spacingAndGlyphs" textLength="447" x="220.5" y="1079.5293">オーディオ再生が完了したことをレポートする(AudioPlayer.PlayFinishedイベント)</text><!--
@startuml
scale max 880 width
skinparam sequenceMessageAlign center
skinparam shadowing false
skinparam roundcorner 10
skinparam padding 10
skinparam defaultFontSize 12
skinparam defaultFontName "Malgun Gothic", sans-serif

skinparam note {
  BackgroundColor #9EA0CA
  BorderColor #ffffff
  FontColor #ffffff
  FontSize 14
  FontStyle bold
}

skinparam sequence {
  ArrowColor #000000
  ActorBorderColor #000000
  ActorFontStyle Bolder


  LifeLineBorderColor #000000
  LifeLineBackgroundColor transparent
  ParticipantBorderColor transparent
  ParticipantFontSize 14
  ParticipantFontColor #ffffff
  ParticipantFontStyle bold

  BoxBorderColor #000000
  BoxFontColor #ffffff
    BoxFontSize 14
    BoxFontStyle bold
}
hide footbox

skinparam activity {
  BackgroundColor #9EA0CA
  BarColor #ffffff
  BorderColor #ffffff
  DiamondBackgroundColor #05D686
  DiamondBorderColor #ffffff
  DiamondFontColor #ffffff
  DiamondFontSize 14
  DiamondFontStyle bold
  FontColor #ffffff 
  FontSize 14
  FontStyle bold
}

actor ユーザー as user #9EA0CA
participant クライアント as client #9EA0CA
participant CIC as cic #05D686

activate client

  client -> client : オーディオ再生を開始する
  client ->> cic : オーディオ再生を開始したことをレポートする(AudioPlayer.PlayStartedイベント)

  activate cic
  deactivate cic

  opt progressReport.progressReportDelayInMilliseconds != null

    ... オーディオ再生を開始してから指定された時間が経過した後 ...

    client ->> cic : オーディオ再生の進行状況をレポートする(AudioPlayer.ProgressReportDelayPassedイベント)

    activate cic
    deactivate cic

  end

  opt progressReport.progressReportIntervalInMilliseconds != null

    loop オーディオ再生が停止するまで

      ... 指定された間隔の時間が経過した後 ...

      client ->> cic : オーディオ再生の進行状況をレポートする(AudioPlayer.ProgressReportIntervalPassedイベント)

      activate cic
      deactivate cic

    end

  end

  opt progressReport.progressReportPositionInMilliseconds != null

    ... オーディオの特定の再生ポイントが経過した後 ...

    client ->> cic : オーディオ再生の進行状況をレポートする(AudioPlayer.ProgressReportPositionPassedイベント)

    activate cic
    deactivate cic

  end

  ... オーディオ再生が完了した後 ...

  client ->> cic : オーディオ再生が完了したことをレポートする(AudioPlayer.PlayFinishedイベント)

deactivate client
activate cic
deactivate cic

@enduml

PlantUML version 1.2018.12(Sun Oct 21 19:15:15 KST 2018)
(GPL source distribution)
Java Runtime: Java(TM) SE Runtime Environment
JVM: Java HotSpot(TM) 64-Bit Server VM
Java Version: 1.8.0_191-b12
Operating System: Windows 10
OS Version: 10.0
Default Encoding: MS949
Language: en
Country: US
--></g></svg>