<?xml version="1.0" encoding="UTF-8" standalone="no"?><svg xmlns="http://www.w3.org/2000/svg" xmlns:xlink="http://www.w3.org/1999/xlink" contentScriptType="application/ecmascript" contentStyleType="text/css" height="320.3492px" preserveAspectRatio="none" style="width:881px;height:320px;" version="1.1" viewBox="0 0 881 320" width="881.1523px" zoomAndPan="magnify"><defs/><g><ellipse cx="539.1008" cy="15.3645" fill="#000000" rx="7.6822" ry="7.6822" style="stroke: none; stroke-width: 0.7682234831951114;"/><rect fill="#9EA0CA" height="45.5015" rx="9.6028" ry="9.6028" style="stroke: #FFFFFF; stroke-width: 1.152335224792667;" width="294.9978" x="391.6019" y="38.4112"/><text fill="#FFFFFF" font-family="&quot;Malgun Gothic&quot;, sans-serif" font-size="10.7551" font-weight="bold" lengthAdjust="spacingAndGlyphs" textLength="264.2689" x="406.9664" y="66.185">受信したディレクティブのダイアログIDを確認する</text><polygon fill="#05D686" points="465.3514,99.2771,612.8503,99.2771,622.069,114.3456,612.8503,129.4141,465.3514,129.4141,456.1327,114.3456,465.3514,99.2771" style="stroke: #FFFFFF; stroke-width: 1.152335224792667;"/><text fill="#FFFFFF" font-family="&quot;Malgun Gothic&quot;, sans-serif" font-size="10.7551" font-weight="bold" lengthAdjust="spacingAndGlyphs" textLength="125.9887" x="476.1065" y="119.3687">ダイアログIDが存在する</text><text fill="#000000" font-family="&quot;Malgun Gothic&quot;, sans-serif" font-size="9.2187" lengthAdjust="spacingAndGlyphs" textLength="18.4374" x="430.0131" y="104.6378">はい</text><text fill="#000000" font-family="&quot;Malgun Gothic&quot;, sans-serif" font-size="9.2187" lengthAdjust="spacingAndGlyphs" textLength="27.656" x="629.7512" y="104.6378">いいえ</text><rect fill="#9EA0CA" height="45.5015" rx="9.6028" ry="9.6028" style="stroke: #FFFFFF; stroke-width: 1.152335224792667;" width="179.7643" x="240.0698" y="137.0964"/><text fill="#FFFFFF" font-family="&quot;Malgun Gothic&quot;, sans-serif" font-size="10.7551" font-weight="bold" lengthAdjust="spacingAndGlyphs" textLength="149.0354" x="255.4343" y="164.8702">最終ダイアログIDを確認する</text><polygon fill="#05D686" points="183.9895,197.9623,475.9144,197.9623,485.1331,213.0308,475.9144,228.0994,183.9895,228.0994,174.7708,213.0308,183.9895,197.9623" style="stroke: #FFFFFF; stroke-width: 1.152335224792667;"/><text fill="#FFFFFF" font-family="&quot;Malgun Gothic&quot;, sans-serif" font-size="10.7551" font-weight="bold" lengthAdjust="spacingAndGlyphs" textLength="270.4147" x="194.7447" y="218.0539">ディレクティブのダイアログID == 最終ダイアログID</text><text fill="#000000" font-family="&quot;Malgun Gothic&quot;, sans-serif" font-size="9.2187" lengthAdjust="spacingAndGlyphs" textLength="18.4374" x="148.6512" y="203.323">はい</text><text fill="#000000" font-family="&quot;Malgun Gothic&quot;, sans-serif" font-size="9.2187" lengthAdjust="spacingAndGlyphs" textLength="27.656" x="492.8154" y="203.323">いいえ</text><rect fill="#9EA0CA" height="45.5015" rx="9.6028" ry="9.6028" style="stroke: #FFFFFF; stroke-width: 1.152335224792667;" width="318.8127" x="7.6822" y="235.7816"/><text fill="#FFFFFF" font-family="&quot;Malgun Gothic&quot;, sans-serif" font-size="10.7551" font-weight="bold" lengthAdjust="spacingAndGlyphs" textLength="288.0838" x="23.0467" y="263.5554">受信したディレクティブをメッセージキューに追加する</text><ellipse cx="167.0886" cy="304.3298" fill="none" rx="7.6822" ry="7.6822" style="stroke: #000000; stroke-width: 0.7682234831951114;"/><ellipse cx="167.4727" cy="304.7139" fill="#000000" rx="4.6093" ry="4.6093" style="stroke: none; stroke-width: 0.7682234831951114;"/><rect fill="#9EA0CA" height="45.5015" rx="9.6028" ry="9.6028" style="stroke: #FFFFFF; stroke-width: 1.152335224792667;" width="215.1026" x="385.2641" y="235.7816"/><text fill="#FFFFFF" font-family="&quot;Malgun Gothic&quot;, sans-serif" font-size="10.7551" font-weight="bold" lengthAdjust="spacingAndGlyphs" textLength="184.3736" x="400.6285" y="263.5554">受信したディレクティブを破棄する</text><ellipse cx="492.8154" cy="304.3298" fill="none" rx="7.6822" ry="7.6822" style="stroke: #000000; stroke-width: 0.7682234831951114;"/><ellipse cx="493.1995" cy="304.7139" fill="#000000" rx="4.6093" ry="4.6093" style="stroke: none; stroke-width: 0.7682234831951114;"/><rect fill="#9EA0CA" height="45.5015" rx="9.6028" ry="9.6028" style="stroke: #FFFFFF; stroke-width: 1.152335224792667;" width="249.6726" x="623.4134" y="137.0964"/><text fill="#FFFFFF" font-family="&quot;Malgun Gothic&quot;, sans-serif" font-size="10.7551" font-weight="bold" lengthAdjust="spacingAndGlyphs" textLength="218.9437" x="638.7778" y="164.8702">受信したディレクティブを即座に処理する</text><ellipse cx="748.2497" cy="205.6446" fill="none" rx="7.6822" ry="7.6822" style="stroke: #000000; stroke-width: 0.7682234831951114;"/><ellipse cx="748.6338" cy="206.0287" fill="#000000" rx="4.6093" ry="4.6093" style="stroke: none; stroke-width: 0.7682234831951114;"/><line style="stroke: #000000; stroke-width: 1.152335224792667;" x1="539.1008" x2="539.1008" y1="23.0467" y2="38.4112"/><polygon fill="#000000" points="536.0279,30.7289,539.1008,38.4112,542.1737,30.7289,539.1008,33.8018" style="stroke: #000000; stroke-width: 0.7682234831951114;"/><line style="stroke: #000000; stroke-width: 1.152335224792667;" x1="167.0886" x2="167.0886" y1="281.2831" y2="296.6475"/><polygon fill="#000000" points="164.0157,288.9653,167.0886,296.6475,170.1615,288.9653,167.0886,292.0382" style="stroke: #000000; stroke-width: 0.7682234831951114;"/><line style="stroke: #000000; stroke-width: 1.152335224792667;" x1="492.8154" x2="492.8154" y1="281.2831" y2="296.6475"/><polygon fill="#000000" points="489.7425,288.9653,492.8154,296.6475,495.8883,288.9653,492.8154,292.0382" style="stroke: #000000; stroke-width: 0.7682234831951114;"/><line style="stroke: #000000; stroke-width: 1.152335224792667;" x1="174.7708" x2="167.0886" y1="213.0308" y2="213.0308"/><line style="stroke: #000000; stroke-width: 1.152335224792667;" x1="167.0886" x2="167.0886" y1="213.0308" y2="235.7816"/><polygon fill="#000000" points="164.0157,228.0994,167.0886,235.7816,170.1615,228.0994,167.0886,231.1723" style="stroke: #000000; stroke-width: 0.7682234831951114;"/><line style="stroke: #000000; stroke-width: 1.152335224792667;" x1="485.1331" x2="492.8154" y1="213.0308" y2="213.0308"/><line style="stroke: #000000; stroke-width: 1.152335224792667;" x1="492.8154" x2="492.8154" y1="213.0308" y2="235.7816"/><polygon fill="#000000" points="489.7425,228.0994,492.8154,235.7816,495.8883,228.0994,492.8154,231.1723" style="stroke: #000000; stroke-width: 0.7682234831951114;"/><line style="stroke: #000000; stroke-width: 1.152335224792667;" x1="329.952" x2="329.952" y1="182.5979" y2="197.9623"/><polygon fill="#000000" points="326.8791,190.2801,329.952,197.9623,333.0249,190.2801,329.952,193.353" style="stroke: #000000; stroke-width: 0.7682234831951114;"/><line style="stroke: #000000; stroke-width: 1.152335224792667;" x1="748.2497" x2="748.2497" y1="182.5979" y2="197.9623"/><polygon fill="#000000" points="745.1768,190.2801,748.2497,197.9623,751.3226,190.2801,748.2497,193.353" style="stroke: #000000; stroke-width: 0.7682234831951114;"/><line style="stroke: #000000; stroke-width: 1.152335224792667;" x1="456.1327" x2="329.952" y1="114.3456" y2="114.3456"/><line style="stroke: #000000; stroke-width: 1.152335224792667;" x1="329.952" x2="329.952" y1="114.3456" y2="137.0964"/><polygon fill="#000000" points="326.8791,129.4141,329.952,137.0964,333.0249,129.4141,329.952,132.487" style="stroke: #000000; stroke-width: 0.7682234831951114;"/><line style="stroke: #000000; stroke-width: 1.152335224792667;" x1="622.069" x2="748.2497" y1="114.3456" y2="114.3456"/><line style="stroke: #000000; stroke-width: 1.152335224792667;" x1="748.2497" x2="748.2497" y1="114.3456" y2="137.0964"/><polygon fill="#000000" points="745.1768,129.4141,748.2497,137.0964,751.3226,129.4141,748.2497,132.487" style="stroke: #000000; stroke-width: 0.7682234831951114;"/><line style="stroke: #000000; stroke-width: 1.152335224792667;" x1="539.1008" x2="539.1008" y1="83.9127" y2="99.2771"/><polygon fill="#000000" points="536.0279,91.5949,539.1008,99.2771,542.1737,91.5949,539.1008,94.6678" style="stroke: #000000; stroke-width: 0.7682234831951114;"/><!--
@startuml
scale max 880 width
skinparam sequenceMessageAlign center
skinparam shadowing false
skinparam roundcorner 10
skinparam padding 10
skinparam defaultFontSize 12
skinparam defaultFontName "Malgun Gothic", sans-serif

skinparam note {
  BackgroundColor #9EA0CA
  BorderColor #ffffff
  FontColor #ffffff
  FontSize 14
  FontStyle bold
}

skinparam sequence {
  ArrowColor #000000
  ActorBorderColor #000000
  ActorFontStyle Bolder


  LifeLineBorderColor #000000
  LifeLineBackgroundColor transparent
  ParticipantBorderColor transparent
  ParticipantFontSize 14
  ParticipantFontColor #ffffff
  ParticipantFontStyle bold

  BoxBorderColor #000000
  BoxFontColor #ffffff
    BoxFontSize 14
    BoxFontStyle bold
}
hide footbox

skinparam activity {
  BackgroundColor #9EA0CA
  BarColor #ffffff
  BorderColor #ffffff
  DiamondBackgroundColor #05D686
  DiamondBorderColor #ffffff
  DiamondFontColor #ffffff
  DiamondFontSize 14
  DiamondFontStyle bold
  FontColor #ffffff 
  FontSize 14
  FontStyle bold
}

start

:受信したディレクティブのダイアログIDを確認する;

if ( ダイアログIDが存在する ) then (はい)

  :最終ダイアログIDを確認する;

  if ( ディレクティブのダイアログID == 最終ダイアログID ) then (はい)

  :受信したディレクティブをメッセージキューに追加する;
  stop

  else (いいえ)

  :受信したディレクティブを破棄する;
  stop
  endif

else (いいえ)
  :受信したディレクティブを即座に処理する;
  stop
endif

@enduml

PlantUML version 1.2018.12(Sun Oct 21 19:15:15 KST 2018)
(GPL source distribution)
Java Runtime: Java(TM) SE Runtime Environment
JVM: Java HotSpot(TM) 64-Bit Server VM
Java Version: 1.8.0_191-b12
Operating System: Windows 10
OS Version: 10.0
Default Encoding: MS949
Language: en
Country: US
--></g></svg>